<svg xmlns="http://www.w3.org/2000/svg" viewBox="0 0 16 16" fill="none">
  <rect width="16" height="16" rx="3" fill="#1B1F23"/>
  <path fill-rule="evenodd" clip-rule="evenodd" d="M8 1.5C4.41 1.5 1.5 4.41 1.5 8c0 2.93 1.9 5.4 4.55 6.28.33.06.45-.14.45-.31 0-.15-.01-.64-.01-1.16-1.66.36-2.01-.71-2.01-.71-.3-.77-.74-.97-.74-.97-.61-.42.05-.41.05-.41.68.05 1.04.7 1.04.7.6 1.03 1.58.73 1.97.56.06-.44.24-.73.44-.9-1.33-.15-2.73-.66-2.73-2.93 0-.65.23-1.18.6-1.6-.06-.15-.26-.76.06-1.59 0 0 .5-.16 1.65.6.48-.13.99-.2 1.5-.2s1.02.07 1.5.2c1.15-.76 1.65-.6 1.65-.6.32.83.12 1.44.06 1.59.37.42.6.95.6 1.6 0 2.28-1.4 2.78-2.74 2.93.25.21.47.62.47 1.25 0 .9-.01 1.62-.01 1.84 0 .17.12.37.45.31A6.508 6.508 0 0 0 14.5 8c0-3.59-2.91-6.5-6.5-6.5Z" fill="#F5F6F8"/>
</svg>
